<svg width="128" height="128" viewBox="0 0 128 128" fill="none" xmlns="http://www.w3.org/2000/svg">
  <defs>
    <linearGradient id="shieldGrad" x1="0%" y1="0%" x2="100%" y2="100%">
      <stop offset="0%" stop-color="#00B7C3"/>
      <stop offset="100%" stop-color="#0078D4"/>
    </linearGradient>
  </defs>
  <!-- Shield shape -->
  <path d="M64 8L16 28V58C16 90 36 114 64 122C92 114 112 90 112 58V28L64 8Z" fill="url(#shieldGrad)"/>
  <!-- Shield inner border -->
  <path d="M64 16L24 33V58C24 85 41 106 64 113C87 106 104 85 104 58V33L64 16Z" fill="none" stroke="rgba(255,255,255,0.3)" stroke-width="2"/>
  <!-- Export arrow (up) -->
  <path d="M48 52L64 36L80 52" stroke="white" stroke-width="6" stroke-linecap="round" stroke-linejoin="round" fill="none"/>
  <path d="M64 40V68" stroke="white" stroke-width="6" stroke-linecap="round"/>
  <!-- Import arrow (down) -->
  <path d="M48 80L64 96L80 80" stroke="white" stroke-width="6" stroke-linecap="round" stroke-linejoin="round" fill="none"/>
  <path d="M64 92V64" stroke="white" stroke-width="6" stroke-linecap="round"/>
</svg>
